<?xml version="1.0" encoding="UTF-8"?>
<svg version="1.1" xmlns="http://www.w3.org/2000/svg" width="1320" height="1000">
<path d="M0 0 C435.6 0 871.2 0 1320 0 C1320 330 1320 660 1320 1000 C884.4 1000 448.8 1000 0 1000 C0 670 0 340 0 0 Z " fill="#FEFEFE" transform="translate(0,0)"/>
<path d="M0 0 C2.56396484 0.8125 2.56396484 0.8125 3.97021484 2.51147461 C4.33115234 3.23858643 4.69208984 3.96569824 5.06396484 4.71484375 C5.47348389 5.51744629 5.88300293 6.32004883 6.30493164 7.14697266 C6.7204126 8.00597168 7.13589355 8.8649707 7.56396484 9.75 C8.22295776 11.06170166 8.22295776 11.06170166 8.89526367 12.39990234 C9.75651732 14.11792644 10.61070241 15.83951621 11.45703125 17.56494141 C12.67886722 20.04580199 13.96548021 22.48942959 15.25146484 24.9375 C18.75748963 32.04831084 21.63567843 39.45042399 24.56396484 46.8125 C24.96083496 47.79911621 24.96083496 47.79911621 25.36572266 48.80566406 C29.94014627 60.23881687 33.38464879 71.92293568 36.56396484 83.8125 C36.9185376 85.13797852 36.9185376 85.13797852 37.28027344 86.49023438 C37.96980216 89.09480076 38.64540396 91.70247843 39.31396484 94.3125 C39.51256104 95.07594727 39.71115723 95.83939453 39.91577148 96.62597656 C42.96779135 108.83405603 43.88900033 120.67481499 43.82470703 133.20458984 C43.81401023 135.67700895 43.82465045 138.14869689 43.83740234 140.62109375 C43.85106532 154.13942313 42.7659503 167.20750958 38.93896484 180.25 C38.68026611 181.1383252 38.42156738 182.02665039 38.1550293 182.94189453 C35.56083253 191.44462836 31.92957786 199.09471985 27.56396484 206.8125 C27.21462891 207.44881348 26.86529297 208.08512695 26.50537109 208.74072266 C21.51817351 217.7902941 15.77543021 225.67801702 8.86767578 233.35302734 C7.66327785 234.70132151 6.49093985 236.07807129 5.32177734 237.45703125 C-17.10536042 263.53987461 -51.39434695 281.73926952 -83.43603516 292.8125 C-84.06123047 293.03711914 -84.68642578 293.26173828 -85.33056641 293.49316406 C-113.38719051 303.5651166 -145.42426005 311.8356287 -175.43603516 310.8125 C-171.86509433 307.04094452 -168.09601565 304.00398523 -163.81103516 301.0625 C-157.43581525 296.59085281 -151.37851141 291.85015476 -145.43603516 286.8125 C-144.88415527 286.34553711 -144.33227539 285.87857422 -143.76367188 285.39746094 C-136.20664477 278.99390774 -128.75584497 272.48678328 -121.43603516 265.8125 C-120.50404297 264.97332031 -119.57205078 264.13414062 -118.61181641 263.26953125 C-112.55083266 257.79087339 -106.68692436 252.15934011 -100.97583008 246.31542969 C-91.45355493 236.63381766 -91.45355493 236.63381766 -85.68603516 235.25 C-81.3864916 234.18973841 -77.41959222 232.63567643 -73.32714844 230.9699707 C-70.20923431 229.72169922 -67.07168733 228.53915881 -63.92431641 227.3671875 C-43.51970506 219.75803882 -23.53524643 211.5035884 -3.99462891 201.85913086 C-3.17607422 201.45960205 -2.35751953 201.06007324 -1.51416016 200.6484375 C-0.79647461 200.29313965 -0.07878906 199.9378418 0.66064453 199.57177734 C2.56396484 198.8125 2.56396484 198.8125 5.56396484 198.8125 C5.56396484 198.1525 5.56396484 197.4925 5.56396484 196.8125 C0.58271176 198.45206422 -4.39588394 200.09954256 -9.37353516 201.75 C-10.14792938 202.00639252 -10.92232361 202.26278503 -11.72018433 202.52694702 C-22.39170881 206.06486235 -33.02511865 209.70044176 -43.63134766 213.4296875 C-44.74093338 213.8188887 -45.8505191 214.2080899 -46.99372864 214.60908508 C-52.52335188 216.54918323 -58.04935258 218.49871714 -63.57055664 220.46264648 C-65.61021389 221.17991636 -67.65000258 221.89681259 -69.68994141 222.61328125 C-70.63213531 222.95225433 -71.57432922 223.29122742 -72.54507446 223.64047241 C-73.41087128 223.94256622 -74.27666809 224.24466003 -75.16870117 224.5559082 C-75.9239357 224.82393753 -76.67917023 225.09196686 -77.45729065 225.36811829 C-79.43603516 225.8125 -79.43603516 225.8125 -82.43603516 224.8125 C-73.78453789 210.84955833 -65.05713431 196.94704566 -55.98291016 183.25390625 C-53.68330553 179.77177131 -51.49334653 176.25565896 -49.38916016 172.65234375 C-43.2572178 162.35822569 -37.85070711 156.99328523 -26.64599609 152.67675781 C-22.71963477 151.14126079 -18.90069708 149.36349012 -15.06103516 147.625 C-14.24683105 147.26237061 -13.43262695 146.89974121 -12.59375 146.52612305 C-5.16792281 143.20352145 2.14673417 139.66789368 9.43896484 136.0625 C10.55062012 135.51956299 11.66227539 134.97662598 12.80761719 134.41723633 C18.29875772 131.67839849 23.08475108 129.02639448 27.56396484 124.8125 C20.80947964 126.70942745 14.35858787 128.98632986 7.89990234 131.71875 C7.02298737 132.0847229 6.14607239 132.4506958 5.24258423 132.82775879 C2.47272501 133.98466016 -0.2942655 135.14823172 -3.06103516 136.3125 C-5.83545277 137.47551344 -8.61046468 138.63708406 -11.38607788 139.79724121 C-13.10321669 140.51544141 -14.81959713 141.23545862 -16.5350647 141.9576416 C-30.49647167 147.8125 -30.49647167 147.8125 -34.43603516 147.8125 C-33.83791106 144.33607198 -32.93504395 141.34061341 -31.51025391 138.1171875 C-31.12772461 137.24191406 -30.74519531 136.36664063 -30.35107422 135.46484375 C-29.94598633 134.54832031 -29.54089844 133.63179687 -29.12353516 132.6875 C-26.33608068 126.28748706 -23.60570812 119.91734627 -21.32275391 113.31640625 C-20.29861261 110.42444779 -19.144601 107.59576965 -17.99853516 104.75 C-15.13593057 97.36007616 -13.07485794 89.79137043 -11.05981445 82.13671875 C-10.6316287 80.54128691 -10.18686344 78.95024036 -9.72827148 77.36328125 C-7.63328361 70.03457816 -6.13630175 62.62550197 -4.75610352 55.13476562 C-4.3764317 53.07818976 -3.98782072 51.02345091 -3.59814453 48.96875 C-1.29617953 36.70300255 0.97535941 24.39925474 0.68896484 11.875 C0.67994141 11.08416016 0.67091797 10.29332031 0.66162109 9.47851562 C0.63872638 7.589702 0.60290404 5.70105099 0.56396484 3.8125 C-0.09603516 4.1425 -0.75603516 4.4725 -1.43603516 4.8125 C-1.99723302 7.4176779 -2.43229585 9.95580153 -2.80322266 12.58984375 C-2.98451218 13.7888607 -2.98451218 13.7888607 -3.16946411 15.01210022 C-3.55850864 17.59021174 -3.93580117 20.16984486 -4.31103516 22.75 C-6.79665272 39.72410834 -9.87437558 56.358404 -14.81103516 72.8125 C-15.10993652 73.82014404 -15.40883789 74.82778809 -15.71679688 75.8659668 C-23.02603352 100.29909269 -23.02603352 100.29909269 -28.13525391 110.93359375 C-30.91336554 117.08214712 -33.12299702 123.47747802 -35.43603516 129.8125 C-36.42603516 129.8125 -37.41603516 129.8125 -38.43603516 129.8125 C-38.6239563 128.93851562 -38.6239563 128.93851562 -38.81567383 128.046875 C-41.47986113 115.75174121 -44.42701268 103.7408838 -48.43603516 91.8125 C-49.14611556 89.69798376 -49.85610734 87.58344028 -50.56494141 85.46850586 C-51.20984602 83.55244818 -51.86367438 81.63940072 -52.51806641 79.7265625 C-53.43603516 76.8125 -53.43603516 76.8125 -53.43603516 74.8125 C-54.09603516 74.8125 -54.75603516 74.8125 -55.43603516 74.8125 C-55.31599121 75.39700928 -55.19594727 75.98151855 -55.07226562 76.58374023 C-52.018653 91.51139591 -49.18185547 106.4678691 -46.4921875 121.46459961 C-46.37123718 122.13785782 -46.25028687 122.81111603 -46.12567139 123.504776 C-45.77759538 125.44303183 -45.43029073 127.38142613 -45.08300781 129.31982422 C-44.5195623 132.36157948 -43.90332068 135.38452427 -43.26025391 138.41015625 C-41.63056966 146.82148596 -43.04089407 150.60399187 -47.74853516 157.625 C-48.29179443 158.4588623 -48.83505371 159.29272461 -49.39477539 160.15185547 C-50.51947856 161.87621531 -51.64981425 163.59691398 -52.78564453 165.31396484 C-54.76610827 168.31219945 -56.71212751 171.33165031 -58.65625 174.35351562 C-60.00232694 176.44338699 -61.35484732 178.5289423 -62.70947266 180.61328125 C-64.57386882 183.48246193 -66.43296532 186.35496688 -68.28759766 189.23046875 C-72.52156382 195.79416737 -76.76554127 202.35136222 -81.06103516 208.875 C-82.00849609 210.31552734 -82.00849609 210.31552734 -82.97509766 211.78515625 C-83.45720703 212.45417969 -83.93931641 213.12320313 -84.43603516 213.8125 C-84.76603516 213.8125 -85.09603516 213.8125 -85.43603516 213.8125 C-87.01526617 196.83736067 -88.23088667 179.84622152 -89.29589844 162.83227539 C-89.47207041 160.02176919 -89.65253327 157.21159082 -89.83691406 154.40161133 C-90.87754803 138.53018283 -91.75812672 122.72501594 -91.43603516 106.8125 C-92.75603516 106.8125 -94.07603516 106.8125 -95.43603516 106.8125 C-95.42350708 107.6374295 -95.410979 108.46235901 -95.39807129 109.31228638 C-95.33728406 113.33578738 -95.27715332 117.35929774 -95.21728516 121.3828125 C-95.20604488 122.13547205 -95.19480461 122.8881316 -95.18322372 123.66359901 C-95.04700269 132.82059706 -94.9203264 141.97761881 -94.81347656 151.13500977 C-94.80357759 151.9769542 -94.79367863 152.81889864 -94.78347969 153.68635654 C-94.70047993 160.74739253 -94.70047993 160.74739253 -94.6644783 163.87854958 C-94.55466807 173.32545337 -94.4080098 182.76771709 -94.14434814 192.21173096 C-94.03005558 196.43887161 -93.94846923 200.66621275 -93.87426758 204.89422607 C-93.83255709 206.77800196 -93.77479894 208.66150007 -93.69995117 210.54425049 C-93.08552796 226.21665422 -93.08552796 226.21665422 -98.71728516 233.2421875 C-100.24742041 234.80858935 -101.81885485 236.33613402 -103.43603516 237.8125 C-104.81363643 239.2057661 -106.18909849 240.60115567 -107.56103516 242 C-108.21845703 242.639375 -108.87587891 243.27875 -109.55322266 243.9375 C-111.35369933 245.73050582 -113.02688793 247.57635105 -114.68603516 249.5 C-117.98104315 253.30603933 -121.31267672 257.07583349 -124.68603516 260.8125 C-125.20584961 261.40119873 -125.72566406 261.98989746 -126.26123047 262.59643555 C-127.59147245 264.06000425 -129.00862936 265.44352602 -130.43603516 266.8125 C-131.42603516 266.8125 -132.41603516 266.8125 -133.43603516 266.8125 C-133.4920137 266.13631622 -133.54799225 265.46013245 -133.60566711 264.76345825 C-134.26095153 256.85049462 -134.9176606 248.93764969 -135.57513809 241.02486801 C-135.74773442 238.9471393 -135.92018641 236.86939865 -136.09262085 234.79165649 C-137.72074821 215.14404861 -137.72074821 215.14404861 -139.43603516 195.50390625 C-139.54361397 194.30353729 -139.54361397 194.30353729 -139.65336609 193.07891846 C-139.97132328 189.54381325 -140.29385489 186.00919658 -140.62280273 182.47509766 C-141.13111165 176.898244 -141.59322627 171.41346741 -141.43603516 165.8125 C-142.42603516 165.8125 -143.41603516 165.8125 -144.43603516 165.8125 C-144.39845093 166.85358917 -144.3608667 167.89467834 -144.32214355 168.96731567 C-143.96484303 178.8790018 -143.61175722 188.79083073 -143.26258087 198.70280647 C-143.08302642 203.79608746 -142.90209319 208.88931094 -142.71777344 213.98242188 C-142.53925952 218.91661861 -142.36467459 223.85094138 -142.19258118 228.78536606 C-142.12695843 230.64842371 -142.06002487 232.51143578 -141.99162292 234.37439346 C-141.79955434 239.61876873 -141.64274881 244.86241333 -141.51760864 250.1088028 C-141.43069722 252.9894221 -141.28986112 255.86510771 -141.1496582 258.74359131 C-141.08402845 260.70775209 -141.01994099 262.67196511 -140.95751953 264.63623047 C-140.90133705 265.53672686 -140.84515457 266.43722324 -140.78726959 267.3650074 C-140.67154562 272.55832468 -141.36210275 275.31784424 -144.80358887 279.30300903 C-147.54689532 282.08391536 -150.41660497 284.65947361 -153.49853516 287.0625 C-158.63080187 291.14417823 -163.61691442 295.36409265 -168.5769043 299.65136719 C-170.19180564 301.04414109 -171.81344124 302.42870487 -173.43603516 303.8125 C-174.33580078 304.58980469 -175.23556641 305.36710937 -176.16259766 306.16796875 C-178.43603516 307.8125 -178.43603516 307.8125 -181.43603516 307.8125 C-183.19462602 296.12647746 -183.80323054 284.68591785 -183.74853516 272.875 C-183.74480392 271.57766434 -183.74480392 271.57766434 -183.74099731 270.25411987 C-183.45101491 204.39497275 -166.96966007 140.83045588 -119.43603516 92.8125 C-116.87210088 90.33521957 -114.19607657 88.06776874 -111.43603516 85.8125 C-110.36767414 84.89789728 -109.30003678 83.98244892 -108.23291016 83.06640625 C-97.63739783 74.09370625 -86.24933093 66.52063839 -74.64746094 58.92138672 C-49.63578615 42.49666064 -22.87585454 24.58991549 -3.91259766 0.91015625 C-2.43603516 -0.1875 -2.43603516 -0.1875 0 0 Z " fill="#4BA330" transform="translate(371.43603515625,333.1875)"/>
<path d="M0 0 C0.85722656 0.52851563 1.71445312 1.05703125 2.59765625 1.6015625 C3.54769531 2.17132813 4.49773437 2.74109375 5.4765625 3.328125 C16.11579435 10.36304565 23.81375665 21.07473144 26.59765625 33.6015625 C27.91550365 47.21209022 26.55749889 59.1684978 18.28515625 70.4765625 C9.44280059 80.88157585 -2.19668878 88.55917599 -16.08984375 89.8515625 C-31.30578615 90.19737937 -44.02976077 85.67957625 -55.140625 75.10546875 C-66.10756242 62.96417879 -68.24153094 50.51939694 -67.57714844 34.74853516 C-66.69258048 23.88416273 -59.79173066 14.55550704 -52.08984375 7.2890625 C-47.60384843 3.49969785 -42.82423368 0.82548556 -37.40234375 -1.3984375 C-36.53222656 -1.76324219 -35.66210938 -2.12804687 -34.765625 -2.50390625 C-24.06168299 -5.35083159 -9.89000549 -5.09442009 0 0 Z " fill="#141414" transform="translate(985.40234375,475.3984375)"/>
<path d="M0 0 C11.0464667 7.1751974 18.17708103 17.01561808 22.3359375 29.4921875 C23.61460019 45.28058527 22.74762566 58.04964807 12.3359375 70.4921875 C11.4696875 71.760625 11.4696875 71.760625 10.5859375 73.0546875 C2.43608685 81.88369237 -8.96985692 86.59040093 -20.84765625 87.6953125 C-32.54663216 87.93861876 -43.19575276 85.48188213 -52.6640625 78.4921875 C-53.37175781 77.97785156 -54.07945312 77.46351563 -54.80859375 76.93359375 C-64.10631373 69.5203065 -69.45539307 59.05829664 -71.6640625 47.4921875 C-73.05151898 33.80357048 -70.22083644 22.31135455 -61.6640625 11.4921875 C-59.3515625 8.8671875 -59.3515625 8.8671875 -56.6640625 6.4921875 C-56.05175781 5.93789063 -55.43945312 5.38359375 -54.80859375 4.8125 C-39.57128956 -8.12116804 -17.36869993 -9.83037855 0 0 Z " fill="#141414" transform="translate(676.6640625,477.5078125)"/>
<path d="M0 0 C5.94 0 11.88 0 18 0 C18 18.15 18 36.3 18 55 C40.77 55 63.54 55 87 55 C87 36.85 87 18.7 87 0 C92.94 0 98.88 0 105 0 C105 43.89 105 87.78 105 133 C98.73 133 92.46 133 86 133 C86 112.87 86 92.74 86 72 C63.56 72 41.12 72 18 72 C18 92.13 18 112.26 18 133 C12.06 133 6.12 133 0 133 C0 89.11 0 45.22 0 0 Z " fill="#161616" transform="translate(475,430)"/>
<path d="M0 0 C7.1487962 4.46641603 12.71853151 11.02136481 15.25 19.0625 C16.02428512 23.63062375 16.37284072 28.01066201 16.36352539 32.64038086 C16.36341209 34.53154884 16.36341209 34.53154884 16.36329651 36.46092224 C16.3581915 37.81639649 16.35297553 39.17187033 16.34765625 40.52734375 C16.34578854 41.92981414 16.3443663 43.33228519 16.34336853 44.73475647 C16.33957116 48.4057092 16.32976496 52.07662165 16.31866455 55.74755859 C16.30839031 59.50162206 16.30385809 63.25569211 16.29882812 67.00976562 C16.2881399 74.36069747 16.27056597 81.71158793 16.25 89.0625 C10.64 89.0625 5.03 89.0625 -0.75 89.0625 C-0.7593457 87.25652344 -0.76869141 85.45054687 -0.77832031 83.58984375 C-0.81395367 77.5985939 -0.86781831 71.60773608 -0.93390274 65.61676025 C-0.97328102 61.9871652 -1.00551619 58.35780923 -1.02099609 54.72802734 C-1.03622717 51.21990773 -1.07078433 47.71244583 -1.11830902 44.20462036 C-1.14019599 42.22627797 -1.14246818 40.24774967 -1.14434814 38.26928711 C-1.2796704 29.89230047 -2.00174044 23.91206388 -8.0625 17.6875 C-13.81348115 14.21016256 -20.13566363 13.04988173 -26.75 14.0625 C-33.6923913 16.22282116 -37.80539378 19.5275149 -41.59375 25.68359375 C-44.99778963 32.68717529 -45.08846883 39.00926928 -45.1640625 46.6796875 C-45.18342865 47.89198029 -45.2027948 49.10427307 -45.2227478 50.353302 C-45.28239315 54.21463039 -45.32886945 58.07598883 -45.375 61.9375 C-45.41319356 64.55990863 -45.45224609 67.18230491 -45.4921875 69.8046875 C-45.58808261 76.22385762 -45.67216975 82.64308646 -45.75 89.0625 C-51.36 89.0625 -56.97 89.0625 -62.75 89.0625 C-62.75 59.6925 -62.75 30.3225 -62.75 0.0625 C-57.14 0.0625 -51.53 0.0625 -45.75 0.0625 C-45.42 4.0225 -45.09 7.9825 -44.75 12.0625 C-43.8425 10.86625 -42.935 9.67 -42 8.4375 C-31.82567391 -2.88521537 -14.0738647 -6.23084412 0 0 Z " fill="#151515" transform="translate(1095.75,473.9375)"/>
<path d="M0 0 C22.77 0 45.54 0 69 0 C69 16.64084507 69 16.64084507 62.56640625 23.45703125 C61.71949219 24.29621094 60.87257813 25.13539063 60 26 C58.4910437 27.65856223 56.9908256 29.32512185 55.5 31 C54.7575 31.8146875 54.015 32.629375 53.25 33.46875 C50.92137947 36.0884481 48.70437053 38.7751531 46.5 41.5 C43.5918662 45.0947765 40.61458668 48.58260628 37.5 52 C31.3557095 58.74688291 25.69850206 65.87687243 20 73 C37.16 73.33 54.32 73.66 72 74 C72 78.95 72 83.9 72 89 C47.58 89 23.16 89 -2 89 C-2 71.20331076 -2 71.20331076 2.16503906 66.8190918 C2.74995117 66.2806665 3.33486328 65.74224121 3.9375 65.1875 C5.14067806 63.94923197 6.34249497 62.70963995 7.54296875 61.46875 C8.43121338 60.58896484 8.43121338 60.58896484 9.33740234 59.69140625 C11.65779668 57.33080537 13.69821794 54.78229365 15.75 52.1875 C18.57487839 48.69764112 21.47717579 45.31989486 24.5 42 C28.30266565 37.8210289 31.915463 33.52116379 35.46875 29.12890625 C39.29216162 24.40274466 43.15050378 19.70493982 47 15 C31.49 14.67 15.98 14.34 0 14 C0 9.38 0 4.76 0 0 Z " fill="#131313" transform="translate(831,474)"/>
<path d="M0 0 C6.5660563 3.40424765 11.62214235 8.25929735 14.6875 15.046875 C17.05250974 24.12721057 17.42520134 35.65400204 13.3515625 44.25390625 C9.19871592 50.8914616 3.70726521 55.64912516 -3.5859375 58.56640625 C-11.97830536 60.19073551 -20.73847004 60.38616098 -28.4609375 56.31640625 C-35.65393657 51.35439085 -40.28615571 45.3749281 -42.140625 36.67578125 C-43.6404953 25.62795612 -42.18028569 16.9132178 -36.2109375 7.50390625 C-27.49566768 -3.90126166 -12.53452626 -5.18358651 0 0 Z " fill="#FCFCFC" transform="translate(665.4609375,489.68359375)"/>
<path d="M0 0 C0.88187988 0.00837891 1.76375977 0.01675781 2.67236328 0.02539062 C10.97274994 0.31399294 16.12547651 2.522263 21.94140625 8.48828125 C28.34281991 16.18540273 29.72317247 24.28733124 29.46875 34.125 C28.56824842 43.29374331 25.02658198 50.50309464 18.125 56.625 C10.15056872 62.36392126 1.61353483 62.44714624 -7.875 61.625 C-16.53923921 59.25361277 -22.2115603 53.18800103 -27.03515625 45.86328125 C-30.64195768 38.39804109 -29.93707039 27.54971923 -28.21875 19.58203125 C-25.26959303 11.38286641 -20.00694063 5.16754032 -12.140625 1.43212891 C-8.12944862 0.00314732 -4.22353069 -0.05463194 0 0 Z " fill="#FDFDFD" transform="translate(964.875,487.375)"/>
<path d="M0 0 C0 6.27 0 12.54 0 19 C-8.5 18.75 -8.5 18.75 -11.12695312 18.63964844 C-16.91637542 18.5582921 -21.16109328 19.78149744 -26 23 C-33.28887685 30.28887685 -33.45923687 38.1696901 -33.51171875 47.93359375 C-33.52966995 49.16666763 -33.54762115 50.39974152 -33.56611633 51.67018127 C-33.62011955 55.5925865 -33.65408421 59.5148707 -33.6875 63.4375 C-33.71905677 66.10356137 -33.75517204 68.76953685 -33.79101562 71.43554688 C-33.87584087 77.95694382 -33.94270051 84.47830547 -34 91 C-39.61 91 -45.22 91 -51 91 C-51 61.63 -51 32.26 -51 2 C-45.39 2 -39.78 2 -34 2 C-33.67 5.63 -33.34 9.26 -33 13 C-32.236875 11.96875 -31.47375 10.9375 -30.6875 9.875 C-21.77819147 -0.2745835 -12.65722517 -0.64908847 0 0 Z " fill="#151515" transform="translate(772,472)"/>
<path d="M0 0 C5.28 0 10.56 0 16 0 C16 29.04 16 58.08 16 88 C10.72 88 5.44 88 0 88 C0 58.96 0 29.92 0 0 Z " fill="#111111" transform="translate(792,474)"/>
<path d="M0 0 C3.66195861 1.59215592 6.20204902 3.40409804 8 7 C8.74645436 11.77002542 8.45434656 15.10753355 6.25 19.4375 C3.65393889 22.39412515 1.73176435 23.70087707 -2.1484375 24.37109375 C-6.38139331 24.4973398 -9.14342222 24.37350209 -12.5 21.625 C-16.32193569 17.61196753 -16.39055607 14.93731164 -16.359375 9.55078125 C-15.78039966 5.44131496 -14.00085071 3.78650423 -11 1 C-7.55105608 -0.72447196 -3.77843255 -0.36671096 0 0 Z " fill="#151515" transform="translate(804,430)"/>
<path d="M0 0 C0.66 0 1.32 0 2 0 C2.66 1.98 3.32 3.96 4 6 C3.34 6 2.68 6 2 6 C1.67 6.99 1.34 7.98 1 9 C0.67 6.03 0.34 3.06 0 0 Z " fill="#CFE7C8" transform="translate(316,408)"/>
</svg>
